<svg width="308" height="160" viewBox="0 0 308 160" fill="none" xmlns="http://www.w3.org/2000/svg">
<path fill-rule="evenodd" clip-rule="evenodd" d="M40 0C17.9086 0 0 17.9086 0 40V120C0 142.091 17.9086 160 40 160C57.717 160 72.7437 148.482 78 132.525C83.2563 148.482 98.283 160 116 160C133.717 160 148.744 148.482 154 132.525C159.256 148.482 174.283 160 192 160C209.717 160 224.744 148.482 230 132.525C235.256 148.482 250.283 160 268 160C290.091 160 308 142.091 308 120V40C308 17.9086 290.091 0 268 0C250.283 0 235.256 11.5185 230 27.4754C224.744 11.5185 209.717 0 192 0C174.283 0 159.256 11.5185 154 27.4754C148.744 11.5185 133.717 0 116 0C98.283 0 83.2563 11.5185 78 27.4754C72.7437 11.5185 57.717 0 40 0Z" fill="#FF5A00"/>
</svg>
